<svg width="50" height="50" viewBox="0 0 50 50" fill="none" xmlns="http://www.w3.org/2000/svg">
<g clip-path="url(#clip0_781_472)">
<path d="M44.7917 18.7498V39.5832M11.4583 18.7498V39.5832M5.20833 18.7498V39.5832M38.5417 18.7498V39.5832M4.16667 43.7498H45.8333M0 48.9582H50M25 22.9165H22.9167C22.3641 22.9165 21.8342 23.136 21.4435 23.5267C21.0528 23.9174 20.8333 24.4473 20.8333 24.9998V25.7811C20.8333 26.2319 20.9795 26.6705 21.25 27.0311C21.5205 27.3917 21.9006 27.6549 22.3333 27.7811L27.6667 29.3373C28.0994 29.4636 28.4795 29.7267 28.75 30.0873C29.0205 30.448 29.1667 30.8866 29.1667 31.3373V33.3332C29.1667 33.8857 28.9472 34.4156 28.5565 34.8063C28.1658 35.197 27.6359 35.4165 27.0833 35.4165H25M25 22.9165H27.0833C27.6359 22.9165 28.1658 23.136 28.5565 23.5267C28.9472 23.9174 29.1667 24.4473 29.1667 24.9998V26.0415M25 22.9165V18.7498M25 35.4165H22.9167C22.3641 35.4165 21.8342 35.197 21.4435 34.8063C21.0528 34.4156 20.8333 33.8857 20.8333 33.3332V32.2915M25 35.4165V39.5832M48.9583 13.0207V14.5832H1.04167V13.0207C11.4583 9.37484 17.7083 6.24984 24.4792 1.0415H25.5208C32.2917 6.24984 38.5417 9.37484 48.9583 13.0207Z" stroke="#1B3C25"/>
</g>
<defs>
<clipPath id="clip0_781_472">
<rect width="50" height="50" fill="white"/>
</clipPath>
</defs>
</svg>
