<svg width="679" height="415" viewBox="0 0 679 415" fill="none" xmlns="http://www.w3.org/2000/svg">
<mask id="mask0_952_204" style="mask-type:alpha" maskUnits="userSpaceOnUse" x="0" y="0" width="679" height="415">
<rect y="0.609497" width="679" height="413.857" rx="15" fill="#D9D9D9"/>
</mask>
<g mask="url(#mask0_952_204)">
<path d="M190.785 166.446L160.945 154.216V114.102L153.118 117.527L152.139 116.548L168.772 101.872L248.51 70.5641L267.589 96.0021L257.316 101.872V103.829L218.18 120.462L199.102 136.116L203.015 138.562L208.886 136.116V156.662L190.785 166.446Z" fill="#A98C47" fill-opacity="0.3" stroke="#A98C47"/>
<path d="M113.003 173.294L117.406 175.74L123.766 170.359H126.212L157.031 193.351V198.243L150.182 207.538V214.387L166.815 219.279L174.642 209.495L181.98 204.114L204.972 186.992L219.158 198.243L237.748 215.854L229.431 228.573L230.899 236.4H233.834L248.999 223.192L247.532 201.668L236.28 196.776V190.905L247.532 195.308V193.351L226.496 183.078L132.082 143.454L113.003 173.294Z" fill="#A98C47" fill-opacity="0.3" stroke="#A98C47"/>
<path d="M52.8329 285.32L42.5599 296.572L72.8898 299.018L78.271 299.507L106.155 307.823L130.125 278.961V271.134L119.363 278.961L118.385 276.515V274.558L148.715 239.825V207.049L155.563 197.755V195.309L125.233 171.827H123.277L110.069 181.122L31.7976 254.501L33.7544 256.458L45.0058 248.631L47.4518 263.307L38.6463 273.09V274.558L50.8761 276.515L52.8329 285.32Z" fill="#A98C47" fill-opacity="0.3" stroke="#A98C47"/>
<path d="M336.565 163.511L314.062 178.187V179.654L323.357 175.741L321.889 205.581L310.148 213.898L363.47 238.357L385.484 226.617L386.952 200.689L376.189 205.581V202.646L432.447 168.403L425.109 165.468V158.619L436.36 152.259L413.368 122.908L336.565 163.511Z" fill="#A98C47" fill-opacity="0.3" stroke="#A98C47"/>
<path d="M264.164 153.238V197.754L265.143 198.733L287.646 204.603L295.473 200.69L305.746 209.495L320.422 202.646L321.889 177.208L312.594 181.122V177.208L335.587 162.533L365.427 147.368V138.073L375.7 131.713L354.176 103.829L275.905 141.497L255.359 155.684L256.826 157.151L264.164 153.238Z" fill="#A98C47" fill-opacity="0.3" stroke="#A98C47"/>
<path d="M239.215 186.503L210.353 173.295V133.67L203.015 137.094L201.548 135.627L220.137 120.951L298.897 87.6859L318.954 114.102L310.148 118.994V123.886L274.927 140.519L253.891 155.684L255.848 158.619L263.186 155.684L262.208 176.23L239.215 186.503Z" fill="#A98C47" fill-opacity="0.3" stroke="#A98C47"/>
<path d="M502.141 174.216L489.902 181.386L489.655 181.531V187.987L489.93 188.125L498.721 192.539L448.483 226.695L448.264 226.843V232.16L448.977 231.823L457.285 227.897V231.109L421.106 256.38L386.137 242.231L388.769 199.431L388.825 198.523L388.028 198.963L378.157 204.415V202.352L478.356 144.104L502.141 174.216Z" fill="#B2985A" fill-opacity="0.3" stroke="#A98C47"/>
<path d="M498.977 287.277L449.079 267.22H448.59L456.906 262.328L458.374 226.617L449.079 230.531V228.085L521.48 179.165L548.875 166.446L574.313 198.244L562.572 208.517V212.92L569.421 215.855L531.264 244.717V248.631L542.515 254.012L498.977 287.277Z" fill="#A98C47" fill-opacity="0.3" stroke="#A98C47"/>
<path d="M606.11 323.966L537.623 298.039V272.601L546.429 266.731V252.055L534.199 245.206L598.772 196.776H616.383L658.943 216.833L643.289 229.552V245.206L662.857 254.501L647.202 269.177V277.493L654.54 282.385L647.202 312.226L638.886 318.585L627.145 321.031L606.11 323.966Z" fill="#A98C47" fill-opacity="0.3" stroke="#A98C47"/>
<path d="M135.996 318.096L175.131 329.837L207.418 287.277V284.342L228.453 255.479V228.084L237.748 215.365L204.972 186.992L175.131 209.495L118.874 275.536L119.852 277.493L131.104 269.666L132.082 283.363L122.788 296.571L134.528 299.017L135.996 318.096Z" fill="#A98C47" fill-opacity="0.3" stroke="#A98C47"/>
<path d="M228.942 320.542V341.088L271.991 350.872L296.206 308.557L320.421 266.242V240.804L326.292 229.552L294.983 201.179L279.329 211.207L263.675 221.236L213.777 294.615L214.756 296.082L226.007 289.234V292.169L210.353 314.672L228.942 320.542Z" fill="#A98C47" fill-opacity="0.3" stroke="#A98C47"/>
</g>
</svg>
