<svg width="694" height="587" viewBox="0 0 694 587" fill="none" xmlns="http://www.w3.org/2000/svg" xmlns:xlink="http://www.w3.org/1999/xlink">
<rect width="694" height="587" rx="15" fill="url(#pattern0_602_6)"/>
<path d="M195 210.5L164.5 198V157L156.5 160.5L155.5 159.5L172.5 144.5L254 112.5L273.5 138.5L263 144.5V146.5L223 163.5L203.5 179.5L207.5 182L213.5 179.5V200.5L195 210.5Z" fill="#A98C47" fill-opacity="0.3" stroke="#A98C47"/>
<path d="M115.5 217.5L120 220L126.5 214.5H129L160.5 238V243L153.5 252.5V259.5L170.5 264.5L178.5 254.5L186 249L209.5 231.5L224 243L243 261L234.5 274L236 282H239L254.5 268.5L253 246.5L241.5 241.5V235.5L253 240V238L231.5 227.5L135 187L115.5 217.5Z" fill="#A98C47" fill-opacity="0.3" stroke="#A98C47"/>
<path d="M54 332L43.5 343.5L74.5 346L80 346.5L108.5 355L133 325.5V317.5L122 325.5L121 323V321L152 285.5V252L159 242.5V240L128 216H126L112.5 225.5L32.5 300.5L34.5 302.5L46 294.5L48.5 309.5L39.5 319.5V321L52 323L54 332Z" fill="#A98C47" fill-opacity="0.3" stroke="#A98C47"/>
<path d="M344 207.5L321 222.5V224L330.5 220L329 250.5L317 259L371.5 284L394 272L395.5 245.5L384.5 250.5V247.5L442 212.5L434.5 209.5V202.5L446 196L422.5 166L344 207.5Z" fill="#A98C47" fill-opacity="0.3" stroke="#A98C47"/>
<path d="M270 197V242.5L271 243.5L294 249.5L302 245.5L312.5 254.5L327.5 247.5L329 221.5L319.5 225.5V221.5L343 206.5L373.5 191V181.5L384 175L362 146.5L282 185L261 199.5L262.5 201L270 197Z" fill="#A98C47" fill-opacity="0.3" stroke="#A98C47"/>
<path d="M244.5 231L215 217.5V177L207.5 180.5L206 179L225 164L305.5 130L326 157L317 162V167L281 184L259.5 199.5L261.5 202.5L269 199.5L268 220.5L244.5 231Z" fill="#A98C47" fill-opacity="0.3" stroke="#A98C47"/>
<path d="M513.251 218.445L500.73 225.78L500.483 225.925V232.511L500.759 232.648L509.761 237.168L458.396 272.089L458.178 272.237V277.648L458.892 277.312L467.398 273.291V276.598L430.41 302.434L394.656 287.967L397.347 244.214L397.402 243.306L396.605 243.745L386.5 249.326V247.192L488.927 187.649L513.251 218.445Z" fill="#B2985A" fill-opacity="0.3" stroke="#A98C47"/>
<path d="M510 334L459 313.5H458.5L467 308.5L468.5 272L459 276V273.5L533 223.5L561 210.5L587 243L575 253.5V258L582 261L543 290.5V294.5L554.5 300L510 334Z" fill="#A98C47" fill-opacity="0.3" stroke="#A98C47"/>
<path d="M619.5 371.5L549.5 345V319L558.5 313V298L546 291L612 241.5H630L673.5 262L657.5 275V291L677.5 300.5L661.5 315.5V324L669 329L661.5 359.5L653 366L641 368.5L619.5 371.5Z" fill="#A98C47" fill-opacity="0.3" stroke="#A98C47"/>
<defs>
<pattern id="pattern0_602_6" patternContentUnits="objectBoundingBox" width="1" height="1">
<use xlink:href="#image0_602_6" transform="matrix(0.000783168 0 0 0.000925926 -0.251841 0)"/>
</pattern>
</defs>
</svg>
