<svg width="694" height="423" viewBox="0 0 694 423" fill="none" xmlns="http://www.w3.org/2000/svg">
<mask id="mask0_894_171" style="mask-type:alpha" maskUnits="userSpaceOnUse" x="0" y="0" width="694" height="423">
<rect width="694" height="423" rx="15" fill="#D9D9D9"/>
</mask>
<g mask="url(#mask0_894_171)">
<path d="M195 169.5L164.5 157V116L156.5 119.5L155.5 118.5L172.5 103.5L254 71.5L273.5 97.5L263 103.5V105.5L223 122.5L203.5 138.5L207.5 141L213.5 138.5V159.5L195 169.5Z" fill="#A98C47" fill-opacity="0.3" stroke="#A98C47"/>
<path d="M115.5 176.5L120 179L126.5 173.5H129L160.5 197V202L153.5 211.5V218.5L170.5 223.5L178.5 213.5L186 208L209.5 190.5L224 202L243 220L234.5 233L236 241H239L254.5 227.5L253 205.5L241.5 200.5V194.5L253 199V197L231.5 186.5L135 146L115.5 176.5Z" fill="#A98C47" fill-opacity="0.3" stroke="#A98C47"/>
<path d="M54 291L43.5 302.5L74.5 305L80 305.5L108.5 314L133 284.5V276.5L122 284.5L121 282V280L152 244.5V211L159 201.5V199L128 175H126L112.5 184.5L32.5 259.5L34.5 261.5L46 253.5L48.5 268.5L39.5 278.5V280L52 282L54 291Z" fill="#A98C47" fill-opacity="0.3" stroke="#A98C47"/>
<path d="M344 166.5L321 181.5V183L330.5 179L329 209.5L317 218L371.5 243L394 231L395.5 204.5L384.5 209.5V206.5L442 171.5L434.5 168.5V161.5L446 155L422.5 125L344 166.5Z" fill="#A98C47" fill-opacity="0.3" stroke="#A98C47"/>
<path d="M270 156V201.5L271 202.5L294 208.5L302 204.5L312.5 213.5L327.5 206.5L329 180.5L319.5 184.5V180.5L343 165.5L373.5 150V140.5L384 134L362 105.5L282 144L261 158.5L262.5 160L270 156Z" fill="#A98C47" fill-opacity="0.3" stroke="#A98C47"/>
<path d="M244.5 190L215 176.5V136L207.5 139.5L206 138L225 123L305.5 89L326 116L317 121V126L281 143L259.5 158.5L261.5 161.5L269 158.5L268 179.5L244.5 190Z" fill="#A98C47" fill-opacity="0.3" stroke="#A98C47"/>
<path d="M513.251 177.445L500.73 184.78L500.483 184.925V191.511L500.759 191.648L509.761 196.168L458.396 231.089L458.178 231.237V236.648L458.892 236.312L467.398 232.291V235.598L430.41 261.434L394.656 246.967L397.347 203.214L397.402 202.306L396.605 202.745L386.5 208.326V206.192L488.927 146.649L513.251 177.445Z" fill="#B2985A" fill-opacity="0.3" stroke="#A98C47"/>
<path d="M510 293L459 272.5H458.5L467 267.5L468.5 231L459 235V232.5L533 182.5L561 169.5L587 202L575 212.5V217L582 220L543 249.5V253.5L554.5 259L510 293Z" fill="#A98C47" fill-opacity="0.3" stroke="#A98C47"/>
<path d="M619.5 330.5L549.5 304V278L558.5 272V257L546 250L612 200.5H630L673.5 221L657.5 234V250L677.5 259.5L661.5 274.5V283L669 288L661.5 318.5L653 325L641 327.5L619.5 330.5Z" fill="#A98C47" fill-opacity="0.3" stroke="#A98C47"/>
<path d="M139 324.5L179 336.5L212 293V290L233.5 260.5V232.5L243 219.5L209.5 190.5L179 213.5L121.5 281L122.5 283L134 275L135 289L125.5 302.5L137.5 305L139 324.5Z" fill="#A98C47" fill-opacity="0.3" stroke="#A98C47"/>
<path d="M234 327V348L278 358L302.75 314.75L327.5 271.5V245.5L333.5 234L301.5 205L285.5 215.25L269.5 225.5L218.5 300.5L219.5 302L231 295V298L215 321L234 327Z" fill="#A98C47" fill-opacity="0.3" stroke="#A98C47"/>
</g>
</svg>
