<svg width="51" height="51" viewBox="0 0 51 51" fill="none" xmlns="http://www.w3.org/2000/svg">
<g clip-path="url(#clip0_696_918)">
<path d="M29.388 50.7579V37.1707C29.388 36.0619 29.8284 34.9985 30.6125 34.2145C31.3965 33.4305 32.4599 32.99 33.5687 32.99V16.2673C33.5687 16.2673 30.4331 14.177 25.2073 14.177C19.9815 14.177 16.846 16.2673 16.846 16.2673V32.99C17.9548 32.99 19.0181 33.4305 19.8021 34.2145C20.5862 34.9985 21.0266 36.0619 21.0266 37.1707V50.7579M7.43946 50.7579V37.1707C7.43946 36.0619 6.999 34.9985 6.21497 34.2145C5.43094 33.4305 4.36757 32.99 3.25879 32.99V16.2673C3.25879 16.2673 6.39429 14.177 11.6201 14.177M42.9752 50.7579V37.1707C42.9752 36.0619 43.4156 34.9985 44.1997 34.2145C44.9837 33.4305 46.047 32.99 47.1558 32.99V16.2673C47.1558 16.2673 44.0203 14.177 38.7945 14.177M24.8938 9.99632C24.8938 9.99632 21.5492 7.90599 21.5492 5.29307C21.5492 4.32399 21.9342 3.3946 22.6194 2.70936C23.3047 2.02412 24.2341 1.63916 25.2031 1.63916C26.1722 1.63916 27.1016 2.02412 27.7868 2.70936C28.4721 3.3946 28.857 4.32399 28.857 5.29307C28.857 7.90599 25.5209 9.99632 25.5209 9.99632H24.8938ZM11.3066 9.99632C11.3066 9.99632 7.96204 7.90599 7.96204 5.29307C7.96204 4.81323 8.05655 4.33809 8.24018 3.89478C8.42381 3.45146 8.69295 3.04866 9.03225 2.70936C9.37154 2.37007 9.77435 2.10092 10.2177 1.9173C10.661 1.73367 11.1361 1.63916 11.616 1.63916C12.0958 1.63916 12.5709 1.73367 13.0142 1.9173C13.4576 2.10092 13.8604 2.37007 14.1997 2.70936C14.5389 3.04866 14.8081 3.45146 14.9917 3.89478C15.1753 4.33809 15.2699 4.81323 15.2699 5.29307C15.2699 7.90599 11.9337 9.99632 11.9337 9.99632H11.3066ZM38.4809 9.99632C38.4809 9.99632 35.1364 7.90599 35.1364 5.29307C35.1364 4.32399 35.5214 3.3946 36.2066 2.70936C36.8918 2.02412 37.8212 1.63916 38.7903 1.63916C39.7594 1.63916 40.6888 2.02412 41.374 2.70936C42.0593 3.3946 42.4442 4.32399 42.4442 5.29307C42.4442 7.90599 39.108 9.99632 39.108 9.99632H38.4809Z" stroke="#1B3C25"/>
</g>
<defs>
<clipPath id="clip0_696_918">
<rect width="50.168" height="50.168" fill="white" transform="translate(0.123047 0.589844)"/>
</clipPath>
</defs>
</svg>
