<svg width="50" height="50" viewBox="0 0 50 50" fill="none" xmlns="http://www.w3.org/2000/svg">
<path d="M39.3958 41.6667C39.9708 37.8687 40.625 32.0062 40.625 25C40.625 12.5 38.5417 3.64583 38.5417 3.64583L38.4375 3.125H3.125V3.64583C3.125 3.64583 5.20833 12.5 5.20833 25C5.20833 37.5 3.125 46.3542 3.125 46.3542V46.875H44.6875L44.7917 46.3542C44.7917 46.3542 46.875 37.5 46.875 25C46.875 18.6042 46.3292 13.1646 45.7979 9.375H39.5833M33.9896 34.375H11.0729M10.3812 9.375C11.2428 15.5857 11.5885 21.8572 11.4146 28.125H34.3312C34.5051 21.8572 34.1595 15.5857 33.2979 9.375H10.3812Z" stroke="#1B3C25"/>
</svg>
