<svg width="51" height="51" viewBox="0 0 51 51" fill="none" xmlns="http://www.w3.org/2000/svg">
<g clip-path="url(#clip0_696_896)">
<path d="M24.6667 49.71C8.46656 40.3035 5.33105 34.0325 5.33105 12.084C11.9156 12.084 18.6172 9.49617 22.6307 5.06675C23.5128 4.09474 24.0667 2.88444 24.4576 1.63232H25.9209C26.3117 2.88444 26.8657 4.09474 27.7478 5.06675C31.7613 9.49617 38.4629 12.084 45.0474 12.084C45.0474 34.0325 41.9119 40.3035 25.7118 49.71H24.6667Z" stroke="#1B3C25"/>
<path d="M24.9765 16.2646H25.4029L25.7165 17.3976C26.2036 19.1613 27.2559 20.7165 28.7118 21.8247C30.1678 22.9329 31.9471 23.5329 33.7768 23.5327H34.5962V23.8797L33.8332 24.4065C32.3684 25.4173 31.2643 26.8691 30.6816 28.5508C30.0988 30.2324 30.0679 32.0561 30.5932 33.7566L31.0029 35.0777H30.564C29.0467 33.8393 27.1482 33.1629 25.1897 33.1629C23.2312 33.1629 21.3328 33.8393 19.8155 35.0777H19.3765L19.7841 33.7566C20.3095 32.0561 20.2785 30.2324 19.6958 28.5508C19.1131 26.8691 18.0089 25.4173 16.5441 24.4065L15.7832 23.8797V23.5327H16.6026C18.4323 23.5329 20.2116 22.9329 21.6676 21.8247C23.1235 20.7165 24.1758 19.1613 24.6629 17.3976L24.9765 16.2646Z" stroke="#1B3C25"/>
</g>
<defs>
<clipPath id="clip0_696_896">
<rect width="50.168" height="50.168" fill="white" transform="translate(0.105469 0.586914)"/>
</clipPath>
</defs>
</svg>
